# xmcd
#
# Track frame offsets:
#	150
#	19865
#	40504
#	60139
#	82617
#	102000
#	123107
#	144899
#	164272
#	181846
#	201670
#	220369
#	238886
#	256029
#	271781
#	289404
#	305464
#
# Disc length: 4300 seconds
#
# Revision: 0
# Processed by: cddbd v1.4PL0 Copyright (c) Steve Scherf et al.
# Submitted via: dBpowerAMP V4.0
#
DISCID=dc10ca11
DTITLE=Mariah Carey - 1's
DYEAR=1900
DGENRE=Ballad
TTITLE0=Sweetheart
TTITLE1=When you beleive
TTITLE2=Whenever you call
TTITLE3=Honey
TTITLE4=Always be my baby
TTITLE5=One sweet away
TTITLE6=Fantasy
TTITLE7=Hero
TTITLE8=Dreamlover
TTITLE9=I'll be there
TTITLE10=Emotions
TTITLE11=Someday
TTITLE12=Love takes time
TTITLE13=Vision of love
TTITLE14=I still beleive
TTITLE15=Without you
TTITLE16=Do you know where you are going to?
EXTD=Mariah Carey 1's
EXTT0=
EXTT1=
EXTT2=
EXTT3=
EXTT4=
EXTT5=
EXTT6=
EXTT7=
EXTT8=
EXTT9=
EXTT10=
EXTT11=
EXTT12=
EXTT13=
EXTT14=
EXTT15=
EXTT16=
PLAYORDER=
